<svg width="41" height="41" viewBox="0 0 41 41" fill="none" xmlns="http://www.w3.org/2000/svg">
<circle cx="20.5" cy="20.2119" r="20" fill="#1278EC"/>
<path fill-rule="evenodd" clip-rule="evenodd" d="M21.0546 33.4212C28.3846 33.4212 34.3267 27.4791 34.3267 20.1491C34.3267 12.8191 28.3846 6.87695 21.0546 6.87695C13.7246 6.87695 7.78247 12.8191 7.78247 20.1491C7.78247 23.1325 8.76687 25.8861 10.4286 28.1026L9.07347 32.4139L13.8749 31.3135C15.9447 32.6473 18.4093 33.4212 21.0546 33.4212Z" fill="white"/>
<path d="M13.8393 22.1638C14.758 22.1638 15.6219 22.1577 16.4798 22.1638C16.9605 22.1698 17.2221 22.3697 17.2707 22.7513C17.3255 23.2299 17.0456 23.5509 16.5224 23.557C15.5368 23.5691 14.5572 23.563 13.5716 23.563C13.2856 23.563 13.0058 23.5752 12.7198 23.557C12.3669 23.5388 12.0201 23.4661 11.8498 23.1027C11.6794 22.7392 11.8011 22.4121 12.0323 22.1153C12.9693 20.928 13.9123 19.7347 14.8553 18.5474C14.9101 18.4747 14.9649 18.4021 15.0196 18.3354C14.9588 18.2324 14.8736 18.2809 14.8006 18.2748C14.1435 18.2688 13.4803 18.2748 12.8232 18.2688C12.6711 18.2688 12.519 18.2506 12.373 18.2203C12.0262 18.1416 11.8133 17.7963 11.8924 17.4571C11.9471 17.2269 12.1297 17.0391 12.3608 16.9846C12.5069 16.9483 12.659 16.9301 12.8111 16.9301C13.894 16.924 14.9831 16.924 16.0661 16.9301C16.2608 16.924 16.4494 16.9483 16.638 16.9967C17.0517 17.136 17.2282 17.5177 17.0639 17.9175C16.9179 18.2627 16.6867 18.5595 16.4555 18.8564C15.6584 19.868 14.8614 20.8735 14.0644 21.873C13.9975 21.9517 13.9366 22.0305 13.8393 22.1638V22.1638Z" fill="#1278EC"/>
<path d="M20.8548 18.9487C20.9995 18.7602 21.1501 18.5839 21.3972 18.5353C21.8733 18.438 22.3193 18.7481 22.3253 19.2344C22.3434 20.4502 22.3374 21.6661 22.3253 22.8819C22.3253 23.198 22.1204 23.4777 21.8251 23.5688C21.5238 23.6843 21.1803 23.5932 20.9814 23.3318C20.8789 23.2041 20.8367 23.1798 20.6921 23.2953C20.1437 23.7451 19.5229 23.8242 18.854 23.6053C17.7812 23.2527 17.3413 22.4077 17.2208 21.3804C17.0942 20.2679 17.4618 19.3195 18.4502 18.7359C19.2698 18.2435 20.1015 18.2861 20.8548 18.9487V18.9487ZM18.7214 21.1676C18.7334 21.4351 18.8178 21.6904 18.9745 21.9032C19.2999 22.3409 19.9207 22.432 20.3606 22.1038C20.433 22.0491 20.4992 21.9822 20.5595 21.9032C20.897 21.4411 20.897 20.6812 20.5595 20.2192C20.3908 19.9821 20.1256 19.8423 19.8423 19.8362C19.1794 19.7937 18.7154 20.3104 18.7214 21.1676V21.1676ZM25.0313 21.2041C24.9831 19.6417 26.0015 18.4745 27.4479 18.432C28.9847 18.3833 30.1057 19.4229 30.1539 20.9427C30.2021 22.4807 29.268 23.5688 27.8276 23.7147C26.2547 23.8728 25.0072 22.7238 25.0313 21.2041V21.2041ZM26.5439 21.0582C26.5319 21.3621 26.6223 21.66 26.8031 21.9092C27.1346 22.3469 27.7553 22.432 28.1892 22.0916C28.2555 22.043 28.3097 21.9822 28.364 21.9214C28.7135 21.4594 28.7135 20.6812 28.37 20.2192C28.2013 19.9882 27.9361 19.8423 27.6528 19.8362C27.002 19.7998 26.5439 20.2983 26.5439 21.0582V21.0582ZM24.5009 19.9943C24.5009 20.9366 24.5069 21.8788 24.5009 22.8211C24.5069 23.2527 24.1695 23.6114 23.7416 23.6236C23.6692 23.6236 23.5909 23.6175 23.5186 23.5992C23.2173 23.5202 22.9882 23.198 22.9882 22.815V17.9821C22.9882 17.6964 22.9822 17.4167 22.9882 17.131C22.9943 16.6629 23.2896 16.359 23.7355 16.359C24.1936 16.3529 24.5009 16.6569 24.5009 17.1432C24.5069 18.0915 24.5009 19.046 24.5009 19.9943V19.9943Z" fill="#1278EC"/>
</svg>